# xmcd CD database file
#
# Track frame offsets:
#	150
#	31625
#	67540
#	112075
#	138570
#	172872
#	204280
#	219424
#	238457
#	253104
#	269509
#	287829
#	304433
#	316754
#	331417
#	348940
#
# Disc length: 4954 seconds
#
# Revision: 0
# Processed by: cddbd v1.5.2PL0 Copyright (c) Steve Scherf et al.
# Submitted via: CDex 1.83
#
DISCID=ee135810
DTITLE=Chet Baker - In New York Introduces Johnny Pace
DYEAR=1958
DGENRE=Jazz
TTITLE0=Fair Weather
TTITLE1=Polka Dots and Moonbeams
TTITLE2=Hotel 49
TTITLE3=Solar
TTITLE4=Blue Thoughts
TTITLE5=When Lights Are Low
TTITLE6=All Or Nothing At All
TTITLE7=Crazy She Calls Me
TTITLE8=The Way You Look Tonight
TTITLE9=This Is Always
TTITLE10=When The Sun Comes out
TTITLE11=What Is There To Say
TTITLE12=Everything I Got Belongs To You
TTITLE13=We Could Make Such Beautiful Music
TTITLE14=It Might As Well Be Spring
TTITLE15=Yesterdays
EXTD=YEAR: 1958
EXTT0=
EXTT1=
EXTT2=
EXTT3=
EXTT4=
EXTT5=
EXTT6=
EXTT7=
EXTT8=
EXTT9=
EXTT10=
EXTT11=
EXTT12=
EXTT13=
EXTT14=
EXTT15=
PLAYORDER=
